<svg width="1920" height="760" viewBox="0 0 1920 760" fill="none" xmlns="http://www.w3.org/2000/svg">
  <defs>
    <linearGradient id="sky" x1="0" y1="0" x2="1920" y2="760" gradientUnits="userSpaceOnUse">
      <stop stop-color="#F4FCFF"/>
      <stop offset="0.46" stop-color="#DFF5FB"/>
      <stop offset="1" stop-color="#48BAD8"/>
    </linearGradient>
    <linearGradient id="mist" x1="0" y1="250" x2="1920" y2="690" gradientUnits="userSpaceOnUse">
      <stop stop-color="#FFFFFF" stop-opacity="0.92"/>
      <stop offset="0.46" stop-color="#FFFFFF" stop-opacity="0.62"/>
      <stop offset="1" stop-color="#FFFFFF" stop-opacity="0.08"/>
    </linearGradient>
    <linearGradient id="city" x1="0" y1="430" x2="1920" y2="430" gradientUnits="userSpaceOnUse">
      <stop stop-color="#CFE8F0" stop-opacity="0.12"/>
      <stop offset="0.55" stop-color="#7EBED0" stop-opacity="0.34"/>
      <stop offset="1" stop-color="#176A88" stop-opacity="0.5"/>
    </linearGradient>
    <radialGradient id="glow" cx="0" cy="0" r="1" gradientUnits="userSpaceOnUse" gradientTransform="translate(1510 230) rotate(130) scale(530 380)">
      <stop stop-color="#FFFFFF" stop-opacity="0.88"/>
      <stop offset="0.44" stop-color="#9DE4F3" stop-opacity="0.34"/>
      <stop offset="1" stop-color="#2CA2CF" stop-opacity="0"/>
    </radialGradient>
    <filter id="softShadow" x="-20%" y="-20%" width="140%" height="140%" color-interpolation-filters="sRGB">
      <feDropShadow dx="0" dy="18" stdDeviation="22" flood-color="#155F82" flood-opacity="0.18"/>
    </filter>
    <pattern id="dots" width="34" height="34" patternUnits="userSpaceOnUse">
      <circle cx="3" cy="3" r="2" fill="#2CA2CF" fill-opacity="0.12"/>
    </pattern>
  </defs>

  <rect width="1920" height="760" fill="url(#sky)"/>
  <rect x="0" y="0" width="1920" height="760" fill="url(#dots)" opacity="0.45"/>
  <circle cx="1544" cy="212" r="330" fill="url(#glow)"/>
  <path d="M-80 510C210 400 430 468 670 424C980 366 1190 224 1532 272C1702 296 1848 368 2012 324V760H-80V510Z" fill="url(#mist)"/>

  <g opacity="0.48">
    <path d="M214 482H184V348H214V482ZM268 482H234V304H268V482ZM330 482H292V382H330V482ZM394 482H356V332H394V482ZM472 482H426V260H472V482ZM528 482H496V365H528V482ZM604 482H562V286H604V482ZM664 482H628V336H664V482ZM742 482H702V244H742V482ZM812 482H772V350H812V482ZM886 482H842V278H886V482ZM964 482H918V318H964V482ZM1034 482H996V356H1034V482ZM1112 482H1074V236H1112V482ZM1196 482H1152V302H1196V482ZM1280 482H1234V384H1280V482ZM1362 482H1320V270H1362V482ZM1444 482H1402V342H1444V482ZM1516 482H1478V298H1516V482ZM1592 482H1550V364H1592V482ZM1674 482H1628V252H1674V482ZM1754 482H1710V330H1754V482Z" fill="url(#city)"/>
    <path d="M128 486H1810" stroke="#2CA2CF" stroke-opacity="0.2" stroke-width="2"/>
  </g>

  <g opacity="0.42" filter="url(#softShadow)">
    <path d="M314 502L354 188L394 502H314Z" fill="#EA5F55" fill-opacity="0.26"/>
    <path d="M354 188L298 502H410L354 188Z" stroke="#EA5F55" stroke-opacity="0.55" stroke-width="5"/>
    <path d="M318 408H390M328 330H380M342 252H366" stroke="#EA5F55" stroke-opacity="0.55" stroke-width="5" stroke-linecap="round"/>
    <path d="M315 505H392" stroke="#EA5F55" stroke-opacity="0.5" stroke-width="10" stroke-linecap="round"/>
  </g>

  <g opacity="0.26">
    <path d="M980 160C1124 88 1314 96 1458 178C1572 243 1674 260 1812 214" stroke="#155F82" stroke-width="3" stroke-linecap="round" stroke-dasharray="14 18"/>
    <path d="M1194 110L1238 156L1185 169" stroke="#155F82" stroke-width="3" stroke-linecap="round" stroke-linejoin="round"/>
    <circle cx="1482" cy="176" r="16" stroke="#155F82" stroke-width="4"/>
    <circle cx="1598" cy="244" r="9" fill="#155F82"/>
  </g>

  <g opacity="0.34">
    <rect x="1224" y="386" width="344" height="156" rx="38" fill="#FFFFFF"/>
    <path d="M1272 466H1394M1272 506H1508M1444 432H1518" stroke="#155F82" stroke-opacity="0.46" stroke-width="12" stroke-linecap="round"/>
    <circle cx="1294" cy="422" r="17" fill="#2CA2CF" fill-opacity="0.45"/>
    <circle cx="1346" cy="422" r="17" fill="#2CA2CF" fill-opacity="0.28"/>
  </g>

  <path d="M-80 620C220 690 520 642 830 652C1208 664 1512 756 2000 620V760H-80V620Z" fill="#FFFFFF" fill-opacity="0.82"/>
  <path d="M-80 650C342 708 626 676 982 688C1326 700 1596 728 2000 654V760H-80V650Z" fill="#FFFFFF"/>
</svg>
